<svg width="38" height="38" viewBox="0 0 38 38" fill="none" xmlns="http://www.w3.org/2000/svg">
<path d="M33.3707 13.5844V24.4144C33.3707 26.1877 32.4207 27.8344 30.8849 28.7369L21.4799 34.1677C19.9441 35.0544 18.0441 35.0544 16.4924 34.1677L7.0874 28.7369C5.55156 27.8503 4.60156 26.2035 4.60156 24.4144V13.5844C4.60156 11.8111 5.55156 10.1643 7.0874 9.26184L16.4924 3.83102C18.0282 2.94435 19.9282 2.94435 21.4799 3.83102L30.8849 9.26184C32.4207 10.1643 33.3707 11.7952 33.3707 13.5844Z" stroke="#3F7B94" stroke-width="3.2" stroke-linecap="round" stroke-linejoin="round"/>
<path d="M19.0037 19.53C21.5774 19.53 23.6637 17.5304 23.6637 15.0638C23.6637 12.5972 21.5774 10.5977 19.0037 10.5977C16.4301 10.5977 14.3438 12.5972 14.3438 15.0638C14.3438 17.5304 16.4301 19.53 19.0037 19.53Z" stroke="#3F7B94" stroke-width="3.2" stroke-linecap="round" stroke-linejoin="round"/>
<path d="M27 30.3796C27 26.9293 23.42 24.1309 19 24.1309C14.58 24.1309 11 26.9293 11 30.3796" stroke="#3F7B94" stroke-width="3.2" stroke-linecap="round" stroke-linejoin="round"/>
</svg>
