<svg width="30" height="23" viewBox="0 0 30 23" fill="none" xmlns="http://www.w3.org/2000/svg">
<path d="M27.8941 1.69758e-06H8.02529C7.64979 1.69758e-06 7.28966 0.151118 7.02413 0.420107C6.75861 0.689095 6.60944 1.05392 6.60944 1.43433V5.75055H13.705V2.87528H22.2198V17.2528H27.8962C28.0822 17.2528 28.2663 17.2157 28.4381 17.1436C28.6098 17.0715 28.7659 16.9658 28.8974 16.8327C29.0289 16.6995 29.1332 16.5413 29.2043 16.3673C29.2755 16.1933 29.3121 16.0068 29.3121 15.8184V1.43433C29.3121 1.24578 29.2754 1.05909 29.2041 0.884926C29.1328 0.710761 29.0283 0.552544 28.8966 0.419326C28.7649 0.286107 28.6086 0.180501 28.4366 0.108549C28.2645 0.0365976 28.0802 -0.000288371 27.8941 1.69758e-06ZM11.2186 4.62736C11.2186 4.73446 11.1766 4.83718 11.1018 4.91291C11.0271 4.98864 10.9257 5.03118 10.82 5.03118H9.48907C9.38335 5.03118 9.28196 4.98864 9.2072 4.91291C9.13245 4.83718 9.09045 4.73446 9.09045 4.62736V3.2802C9.09045 3.1731 9.13245 3.07039 9.2072 2.99466C9.28196 2.91893 9.38335 2.87638 9.48907 2.87638H10.82C10.9257 2.87638 11.0271 2.91893 11.1018 2.99466C11.1766 3.07039 11.2186 3.1731 11.2186 3.2802V4.62736ZM26.83 13.9726C26.83 14.0797 26.788 14.1824 26.7132 14.2581C26.6385 14.3338 26.5371 14.3764 26.4314 14.3764H25.1005C24.9948 14.3764 24.8934 14.3338 24.8186 14.2581C24.7439 14.1824 24.7019 14.0797 24.7019 13.9726V12.6254C24.7019 12.5183 24.7439 12.4156 24.8186 12.3399C24.8934 12.2641 24.9948 12.2216 25.1005 12.2216H26.4314C26.5371 12.2216 26.6385 12.2641 26.7132 12.3399C26.788 12.4156 26.83 12.5183 26.83 12.6254V13.9726ZM26.83 9.29996C26.83 9.40706 26.788 9.50978 26.7132 9.58551C26.6385 9.66124 26.5371 9.70378 26.4314 9.70378H25.1005C24.9948 9.70378 24.8934 9.66124 24.8186 9.58551C24.7439 9.50978 24.7019 9.40706 24.7019 9.29996V7.9528C24.7019 7.8457 24.7439 7.74299 24.8186 7.66725C24.8934 7.59152 24.9948 7.54898 25.1005 7.54898H26.4314C26.5371 7.54898 26.6385 7.59152 26.7132 7.66725C26.788 7.74299 26.83 7.8457 26.83 7.9528V9.29996ZM26.83 4.62736C26.83 4.73446 26.788 4.83718 26.7132 4.91291C26.6385 4.98864 26.5371 5.03118 26.4314 5.03118H25.1005C24.9948 5.03118 24.8934 4.98864 24.8186 4.91291C24.7439 4.83718 24.7019 4.73446 24.7019 4.62736V3.2802C24.7019 3.1731 24.7439 3.07039 24.8186 2.99466C24.8934 2.91893 24.9948 2.87638 25.1005 2.87638H26.4314C26.5371 2.87638 26.6385 2.91893 26.7132 2.99466C26.788 3.07039 26.83 3.1731 26.83 3.2802V4.62736ZM19.3793 7.18819H2.34554C2.15934 7.18819 1.97496 7.2254 1.80297 7.29769C1.63097 7.36998 1.47474 7.47592 1.34323 7.60946C1.21171 7.74301 1.10749 7.90152 1.03653 8.07592C0.965567 8.25032 0.929262 8.43719 0.929691 8.62583V21.5657C0.929691 21.754 0.966313 21.9405 1.03747 22.1146C1.10862 22.2886 1.21291 22.4467 1.34438 22.5799C1.47586 22.7131 1.63194 22.8187 1.80372 22.8908C1.9755 22.9629 2.15961 23 2.34554 23H19.3793C19.5653 23 19.7494 22.9629 19.9212 22.8908C20.0929 22.8187 20.249 22.7131 20.3805 22.5799C20.512 22.4467 20.6163 22.2886 20.6874 22.1146C20.7586 21.9405 20.7952 21.754 20.7952 21.5657V8.62583C20.7956 8.43719 20.7593 8.25032 20.6884 8.07592C20.6174 7.90152 20.5132 7.74301 20.3817 7.60946C20.2501 7.47592 20.0939 7.36998 19.9219 7.29769C19.7499 7.2254 19.5656 7.18819 19.3793 7.18819ZM5.18705 10.0646C5.46708 10.0646 5.74082 10.1487 5.97366 10.3063C6.20649 10.4639 6.38797 10.6879 6.49513 10.95C6.60229 11.2121 6.63033 11.5005 6.5757 11.7787C6.52107 12.057 6.38622 12.3125 6.18821 12.5131C5.9902 12.7137 5.73792 12.8503 5.46327 12.9057C5.18862 12.961 4.90394 12.9326 4.64523 12.824C4.38652 12.7155 4.16539 12.5316 4.00981 12.2958C3.85424 12.0599 3.7712 11.7826 3.7712 11.4989C3.7712 11.1185 3.92037 10.7537 4.18589 10.4847C4.45142 10.2157 4.81154 10.0646 5.18705 10.0646ZM17.9602 20.1291H3.76793V18.6948L6.60617 15.8195L8.02203 17.2539L13.6985 11.5033L17.9559 15.8162L17.9602 20.1291Z" fill="white"/>
</svg>
