<svg width="37" height="50" viewBox="0 0 37 50" fill="none" xmlns="http://www.w3.org/2000/svg">
<path opacity="0.95" fill-rule="evenodd" clip-rule="evenodd" d="M15.807 4.26912V2.33568C15.807 1.04544 16.849 0 18.1338 0C18.7512 0 19.3427 0.24624 19.7792 0.684C20.2153 1.12224 20.4606 1.716 20.4606 2.33568V4.27104C23.5478 4.76112 26.4254 6.21888 28.6643 8.46576C31.4568 11.269 33.0262 15.0715 33.0262 19.0363V34.4078L35.4023 36.5261C36.2023 37.2394 36.4796 38.3741 36.1 39.3782C35.7198 40.3819 34.7615 41.0458 33.6919 41.0458H2.57627C1.50658 41.0458 0.547832 40.3819 0.168158 39.3782C-0.211995 38.3741 0.0658283 37.2394 0.865822 36.5261L3.24189 34.4078V19.0363C3.24189 11.5747 8.68835 5.38992 15.807 4.26912Z" fill="white"/>
<path opacity="0.95" d="M13.0156 44.8613H23.2539C23.2539 47.6976 20.9596 50.0002 18.1345 50.0002C15.3094 50.0002 13.0156 47.6976 13.0156 44.8613Z" fill="white"/>
</svg>
