<svg width="35" height="37" viewBox="0 0 35 37" fill="none" xmlns="http://www.w3.org/2000/svg">
<path d="M4.375 35.082H30.625" stroke="#3F7B94" stroke-width="3" stroke-linecap="round" stroke-linejoin="round"/>
<path d="M8.19849 12.3008H5.84559C5.03676 12.3008 4.375 12.9625 4.375 13.7714V26.4478C4.375 27.2567 5.03676 27.9184 5.84559 27.9184H8.19849C9.00732 27.9184 9.66908 27.2567 9.66908 26.4478V13.7714C9.66908 12.9625 9.00732 12.3008 8.19849 12.3008Z" stroke="#3F7B94" stroke-width="2.8" stroke-linecap="round" stroke-linejoin="round"/>
<path d="M18.7844 7.60938H16.4315C15.6227 7.60938 14.9609 8.27114 14.9609 9.07996V26.4476C14.9609 27.2564 15.6227 27.9182 16.4315 27.9182H18.7844C19.5933 27.9182 20.255 27.2564 20.255 26.4476V9.07996C20.255 8.27114 19.5933 7.60938 18.7844 7.60938Z" stroke="#3F7B94" stroke-width="2.8" stroke-linecap="round" stroke-linejoin="round"/>
<path d="M29.3782 2.91797H27.0253C26.2165 2.91797 25.5547 3.57973 25.5547 4.38856V26.4474C25.5547 27.2562 26.2165 27.918 27.0253 27.918H29.3782C30.187 27.918 30.8488 27.2562 30.8488 26.4474V4.38856C30.8488 3.57973 30.187 2.91797 29.3782 2.91797Z" stroke="#3F7B94" stroke-width="2.8" stroke-linecap="round" stroke-linejoin="round"/>
</svg>
