<svg width="31" height="31" viewBox="0 0 31 31" fill="none" xmlns="http://www.w3.org/2000/svg">
<path d="M27.6941 10.7637V5.61881C27.6941 4.02094 26.9647 3.375 25.1528 3.375H20.549C18.7371 3.375 18.0078 4.02094 18.0078 5.61881V10.7524C18.0078 12.3616 18.7371 12.9962 20.549 12.9962H25.1528C26.9647 13.0075 27.6941 12.3616 27.6941 10.7637Z" stroke="white" stroke-width="2.5" stroke-linecap="round" stroke-linejoin="round"/>
<path d="M27.9969 24.7671V20.1941C27.9969 18.3944 27.2677 17.6699 25.4562 17.6699H20.8532C19.0417 17.6699 18.3125 18.3944 18.3125 20.1941V24.7671C18.3125 26.5668 19.0417 27.2912 20.8532 27.2912H25.4562C27.2677 27.2912 27.9969 26.5668 27.9969 24.7671Z" stroke="white" stroke-width="2.5" stroke-linecap="round" stroke-linejoin="round"/>
<path d="M12.9987 10.7637V5.61881C12.9987 4.02094 12.2694 3.375 10.4575 3.375H5.85372C4.04182 3.375 3.3125 4.02094 3.3125 5.61881V10.7524C3.3125 12.3616 4.04182 12.9962 5.85372 12.9962H10.4575C12.2694 13.0075 12.9987 12.3616 12.9987 10.7637Z" stroke="white" stroke-width="2.5" stroke-linecap="round" stroke-linejoin="round"/>
<path d="M12.9875 24.7671V20.1941C12.9875 18.3944 12.259 17.6699 10.4492 17.6699H5.85076C4.04097 17.6699 3.3125 18.3944 3.3125 20.1941V24.7671C3.3125 26.5668 4.04097 27.2912 5.85076 27.2912H10.4492C12.259 27.2912 12.9875 26.5668 12.9875 24.7671Z" stroke="white" stroke-width="2.5" stroke-linecap="round" stroke-linejoin="round"/>
</svg>
