<svg width="51" height="53" viewBox="0 0 51 53" fill="none" xmlns="http://www.w3.org/2000/svg">
<path fill-rule="evenodd" clip-rule="evenodd" d="M49.8239 26.1328C38.8695 4.06855 14.7146 0.280281 4.04815 1.10162C3.06555 1.17728 2.33244 2.00866 2.41071 2.95855C2.48898 3.90844 3.34898 4.61714 4.33159 4.54147C14.2648 3.77659 36.5594 7.39072 46.6057 27.6259C47.0322 28.485 48.0984 28.8471 48.9871 28.4348C49.8757 28.0225 50.2504 26.9919 49.8239 26.1328Z" fill="#3F7B94" stroke="#3F7B94" stroke-linecap="round"/>
<path fill-rule="evenodd" clip-rule="evenodd" d="M41.6418 39.0464C37.4483 20.4524 20.3949 13.5275 12.4421 12.3562C11.4831 12.215 10.5912 12.8779 10.4499 13.837C10.3087 14.796 10.9716 15.6879 11.9307 15.8292C19.168 16.895 34.478 23.238 38.2174 39.8187C38.4307 40.7643 39.3702 41.358 40.3158 41.1447C41.2614 40.9314 41.8551 39.992 41.6418 39.0464Z" fill="#3F7B94" stroke="#3F7B94" stroke-linecap="round"/>
<path fill-rule="evenodd" clip-rule="evenodd" d="M25.5627 50.0587C27.2136 35.2137 16.3589 25.7437 10.7831 22.8494C9.92273 22.4028 8.86323 22.7382 8.41663 23.5986C7.97004 24.4589 8.30546 25.5184 9.16582 25.965C14.0999 28.5262 23.4966 36.8769 22.0739 49.6707C21.9667 50.6341 22.6609 51.502 23.6243 51.6092C24.5877 51.7163 25.4556 51.0221 25.5627 50.0587Z" fill="#3F7B94" stroke="#3F7B94" stroke-linecap="round"/>
</svg>
