<svg width="51" height="62" viewBox="0 0 51 62" fill="none" xmlns="http://www.w3.org/2000/svg">
<path d="M28.4283 2.5H8.65074C7.15207 2.5 5.71478 3.09534 4.65506 4.15506C3.59534 5.21478 3 6.65207 3 8.15074V53.3566C3 54.8553 3.59534 56.2926 4.65506 57.3523C5.71478 58.412 7.15207 59.0074 8.65074 59.0074H42.5551C44.0538 59.0074 45.4911 58.412 46.5508 57.3523C47.6105 56.2926 48.2059 54.8553 48.2059 53.3566V22.2776L28.4283 2.5Z" stroke="#3F7B94" stroke-width="5" stroke-linecap="round" stroke-linejoin="round"/>
<path d="M28.4297 2.5V22.2776H48.2073" stroke="#3F7B94" stroke-width="5" stroke-linecap="round" stroke-linejoin="round"/>
<mask id="path-3-outside-1_294_24072" maskUnits="userSpaceOnUse" x="9.96875" y="40.3828" width="30" height="13" fill="black">
<rect fill="white" x="9.96875" y="40.3828" width="30" height="13"/>
<path d="M18.5688 46.6388C18.5688 48.3508 18.6968 50.0148 17.4167 51.2948C16.6648 52.0468 15.5928 52.3828 14.4088 52.3828H10.2968V40.9908H14.4088C15.5928 40.9908 16.6648 41.3268 17.4167 42.0788C18.6968 43.3588 18.5688 44.9268 18.5688 46.6388ZM16.3448 46.6388C16.3448 44.9108 16.2808 44.1908 15.8648 43.6788C15.4808 43.2148 14.9688 42.9748 14.2008 42.9748H12.5208V50.3988H14.2008C14.9688 50.3988 15.4808 50.1588 15.8648 49.6948C16.2808 49.1828 16.3448 48.3668 16.3448 46.6388ZM28.8756 46.6868C28.8756 48.6548 28.8916 50.0788 27.7396 51.2308C26.9396 52.0308 25.9636 52.4788 24.6676 52.4788C23.3716 52.4788 22.3796 52.0308 21.5796 51.2308C20.4276 50.0788 20.4596 48.6548 20.4596 46.6868C20.4596 44.7188 20.4276 43.2948 21.5796 42.1428C22.3796 41.3428 23.3716 40.8948 24.6676 40.8948C25.9636 40.8948 26.9396 41.3428 27.7396 42.1428C28.8916 43.2948 28.8756 44.7188 28.8756 46.6868ZM26.6516 46.6868C26.6516 44.4948 26.5236 43.9668 26.0916 43.4868C25.7716 43.1188 25.2756 42.8788 24.6676 42.8788C24.0596 42.8788 23.5476 43.1188 23.2276 43.4868C22.7956 43.9668 22.6836 44.4948 22.6836 46.6868C22.6836 48.8788 22.7956 49.4068 23.2276 49.8868C23.5476 50.2548 24.0596 50.4948 24.6676 50.4948C25.2756 50.4948 25.7716 50.2548 26.0916 49.8868C26.5236 49.4068 26.6516 48.8788 26.6516 46.6868ZM39.1405 48.8788C38.7405 51.2628 37.0605 52.4788 34.9485 52.4788C33.7005 52.4788 32.6765 52.0308 31.8765 51.2308C30.7245 50.0788 30.7565 48.6548 30.7565 46.6868C30.7565 44.7188 30.7245 43.2948 31.8765 42.1428C32.6765 41.3428 33.7005 40.8948 34.9485 40.8948C37.0765 40.8948 38.7405 42.1108 39.1405 44.4948H36.8845C36.6605 43.5828 36.0845 42.8788 34.9645 42.8788C34.3565 42.8788 33.8605 43.1028 33.5405 43.4708C33.1085 43.9508 32.9805 44.4948 32.9805 46.6868C32.9805 48.8788 33.1085 49.4228 33.5405 49.9028C33.8605 50.2708 34.3565 50.4948 34.9645 50.4948C36.0845 50.4948 36.6605 49.7908 36.8845 48.8788H39.1405Z"/>
</mask>
<path d="M18.5688 46.6388C18.5688 48.3508 18.6968 50.0148 17.4167 51.2948C16.6648 52.0468 15.5928 52.3828 14.4088 52.3828H10.2968V40.9908H14.4088C15.5928 40.9908 16.6648 41.3268 17.4167 42.0788C18.6968 43.3588 18.5688 44.9268 18.5688 46.6388ZM16.3448 46.6388C16.3448 44.9108 16.2808 44.1908 15.8648 43.6788C15.4808 43.2148 14.9688 42.9748 14.2008 42.9748H12.5208V50.3988H14.2008C14.9688 50.3988 15.4808 50.1588 15.8648 49.6948C16.2808 49.1828 16.3448 48.3668 16.3448 46.6388ZM28.8756 46.6868C28.8756 48.6548 28.8916 50.0788 27.7396 51.2308C26.9396 52.0308 25.9636 52.4788 24.6676 52.4788C23.3716 52.4788 22.3796 52.0308 21.5796 51.2308C20.4276 50.0788 20.4596 48.6548 20.4596 46.6868C20.4596 44.7188 20.4276 43.2948 21.5796 42.1428C22.3796 41.3428 23.3716 40.8948 24.6676 40.8948C25.9636 40.8948 26.9396 41.3428 27.7396 42.1428C28.8916 43.2948 28.8756 44.7188 28.8756 46.6868ZM26.6516 46.6868C26.6516 44.4948 26.5236 43.9668 26.0916 43.4868C25.7716 43.1188 25.2756 42.8788 24.6676 42.8788C24.0596 42.8788 23.5476 43.1188 23.2276 43.4868C22.7956 43.9668 22.6836 44.4948 22.6836 46.6868C22.6836 48.8788 22.7956 49.4068 23.2276 49.8868C23.5476 50.2548 24.0596 50.4948 24.6676 50.4948C25.2756 50.4948 25.7716 50.2548 26.0916 49.8868C26.5236 49.4068 26.6516 48.8788 26.6516 46.6868ZM39.1405 48.8788C38.7405 51.2628 37.0605 52.4788 34.9485 52.4788C33.7005 52.4788 32.6765 52.0308 31.8765 51.2308C30.7245 50.0788 30.7565 48.6548 30.7565 46.6868C30.7565 44.7188 30.7245 43.2948 31.8765 42.1428C32.6765 41.3428 33.7005 40.8948 34.9485 40.8948C37.0765 40.8948 38.7405 42.1108 39.1405 44.4948H36.8845C36.6605 43.5828 36.0845 42.8788 34.9645 42.8788C34.3565 42.8788 33.8605 43.1028 33.5405 43.4708C33.1085 43.9508 32.9805 44.4948 32.9805 46.6868C32.9805 48.8788 33.1085 49.4228 33.5405 49.9028C33.8605 50.2708 34.3565 50.4948 34.9645 50.4948C36.0845 50.4948 36.6605 49.7908 36.8845 48.8788H39.1405Z" fill="#3F7B94"/>
<path d="M17.4167 51.2948L17.2753 51.1534L17.4167 51.2948ZM10.2968 52.3828H10.0968V52.5828H10.2968V52.3828ZM10.2968 40.9908V40.7908H10.0968V40.9908H10.2968ZM17.4167 42.0788L17.2753 42.2202L17.4167 42.0788ZM15.8648 43.6788L16.02 43.5527L16.0188 43.5513L15.8648 43.6788ZM12.5208 42.9748V42.7748H12.3208V42.9748H12.5208ZM12.5208 50.3988H12.3208V50.5988H12.5208V50.3988ZM15.8648 49.6948L16.0188 49.8223L16.02 49.8209L15.8648 49.6948ZM18.3688 46.6388C18.3688 48.3828 18.4841 49.9446 17.2753 51.1534L17.5582 51.4362C18.9094 50.085 18.7688 48.3188 18.7688 46.6388H18.3688ZM17.2753 51.1534C16.5716 51.8571 15.5572 52.1828 14.4088 52.1828V52.5828C15.6283 52.5828 16.7579 52.2365 17.5582 51.4362L17.2753 51.1534ZM14.4088 52.1828H10.2968V52.5828H14.4088V52.1828ZM10.4968 52.3828V40.9908H10.0968V52.3828H10.4968ZM10.2968 41.1908H14.4088V40.7908H10.2968V41.1908ZM14.4088 41.1908C15.5572 41.1908 16.5716 41.5166 17.2753 42.2202L17.5582 41.9374C16.7579 41.1371 15.6283 40.7908 14.4088 40.7908V41.1908ZM17.2753 42.2202C18.4845 43.4294 18.3688 44.897 18.3688 46.6388H18.7688C18.7688 44.9567 18.909 43.2882 17.5582 41.9374L17.2753 42.2202ZM16.5448 46.6388C16.5448 45.7763 16.5291 45.1502 16.4586 44.6736C16.3873 44.1913 16.2578 43.8454 16.02 43.5527L15.7095 43.8049C15.8877 44.0242 15.9982 44.2943 16.0629 44.7321C16.1284 45.1754 16.1448 45.7733 16.1448 46.6388H16.5448ZM16.0188 43.5513C15.5913 43.0347 15.0191 42.7748 14.2008 42.7748V43.1748C14.9184 43.1748 15.3702 43.3949 15.7107 43.8063L16.0188 43.5513ZM14.2008 42.7748H12.5208V43.1748H14.2008V42.7748ZM12.3208 42.9748V50.3988H12.7208V42.9748H12.3208ZM12.5208 50.5988H14.2008V50.1988H12.5208V50.5988ZM14.2008 50.5988C15.0191 50.5988 15.5913 50.3389 16.0188 49.8223L15.7107 49.5673C15.3702 49.9787 14.9184 50.1988 14.2008 50.1988V50.5988ZM16.02 49.8209C16.2601 49.5254 16.3882 49.1529 16.4588 48.6506C16.529 48.1509 16.5448 47.5018 16.5448 46.6388H16.1448C16.1448 47.5039 16.1285 48.1267 16.0627 48.595C15.9973 49.0607 15.8854 49.3522 15.7095 49.5687L16.02 49.8209ZM27.7396 51.2308L27.5982 51.0894L27.7396 51.2308ZM21.5796 51.2308L21.721 51.0894L21.5796 51.2308ZM21.5796 42.1428L21.4382 42.0014L21.5796 42.1428ZM27.7396 42.1428L27.5982 42.2842L27.7396 42.1428ZM26.0916 43.4868L25.9407 43.6181L25.943 43.6206L26.0916 43.4868ZM23.2276 43.4868L23.3763 43.6206L23.3785 43.618L23.2276 43.4868ZM23.2276 49.8868L23.3786 49.7556L23.3763 49.753L23.2276 49.8868ZM26.0916 49.8868L25.9429 49.753L25.9407 49.7556L26.0916 49.8868ZM28.6756 46.6868C28.6756 48.676 28.6812 50.0063 27.5982 51.0894L27.881 51.3722C29.102 50.1513 29.0756 48.6336 29.0756 46.6868H28.6756ZM27.5982 51.0894C26.8349 51.8527 25.9094 52.2788 24.6676 52.2788V52.6788C26.0178 52.6788 27.0444 52.2089 27.881 51.3722L27.5982 51.0894ZM24.6676 52.2788C23.425 52.2788 22.4838 51.8521 21.721 51.0894L21.4382 51.3722C22.2755 52.2095 23.3182 52.6788 24.6676 52.6788V52.2788ZM21.721 51.0894C20.6385 50.0068 20.6596 48.6783 20.6596 46.6868H20.2596C20.2596 48.6314 20.2167 50.1508 21.4382 51.3722L21.721 51.0894ZM20.6596 46.6868C20.6596 44.6954 20.6385 43.3668 21.721 42.2842L21.4382 42.0014C20.2167 43.2228 20.2596 44.7423 20.2596 46.6868H20.6596ZM21.721 42.2842C22.4838 41.5215 23.425 41.0948 24.6676 41.0948V40.6948C23.3182 40.6948 22.2755 41.1641 21.4382 42.0014L21.721 42.2842ZM24.6676 41.0948C25.9094 41.0948 26.8349 41.5209 27.5982 42.2842L27.881 42.0014C27.0444 41.1647 26.0178 40.6948 24.6676 40.6948V41.0948ZM27.5982 42.2842C28.6812 43.3673 28.6756 44.6976 28.6756 46.6868H29.0756C29.0756 44.74 29.102 43.2223 27.881 42.0014L27.5982 42.2842ZM26.8516 46.6868C26.8516 45.5917 26.82 44.8947 26.7303 44.4085C26.6381 43.9088 26.4827 43.6224 26.2403 43.353L25.943 43.6206C26.1326 43.8313 26.2572 44.0488 26.3369 44.4811C26.4192 44.9269 26.4516 45.59 26.4516 46.6868H26.8516ZM26.2425 43.3556C25.8824 42.9414 25.3301 42.6788 24.6676 42.6788V43.0788C25.2212 43.0788 25.6609 43.2963 25.9407 43.618L26.2425 43.3556ZM24.6676 42.6788C24.007 42.6788 23.438 42.9401 23.0767 43.3556L23.3785 43.618C23.6572 43.2976 24.1122 43.0788 24.6676 43.0788V42.6788ZM23.079 43.353C22.8355 43.6236 22.6845 43.9109 22.5967 44.4102C22.5112 44.8957 22.4836 45.5923 22.4836 46.6868H22.8836C22.8836 45.5893 22.912 44.9259 22.9906 44.4795C23.0668 44.0467 23.1878 43.8301 23.3763 43.6206L23.079 43.353ZM22.4836 46.6868C22.4836 47.7813 22.5112 48.4779 22.5967 48.9635C22.6845 49.4627 22.8355 49.7501 23.079 50.0206L23.3763 49.753C23.1878 49.5436 23.0668 49.3269 22.9906 48.8942C22.912 48.4477 22.8836 47.7843 22.8836 46.6868H22.4836ZM23.0767 50.018C23.438 50.4336 24.007 50.6948 24.6676 50.6948V50.2948C24.1122 50.2948 23.6572 50.0761 23.3785 49.7556L23.0767 50.018ZM24.6676 50.6948C25.3301 50.6948 25.8824 50.4323 26.2425 50.018L25.9407 49.7556C25.6609 50.0774 25.2212 50.2948 24.6676 50.2948V50.6948ZM26.2403 50.0206C26.4827 49.7513 26.6381 49.4648 26.7303 48.9651C26.82 48.4789 26.8516 47.782 26.8516 46.6868H26.4516C26.4516 47.7837 26.4192 48.4467 26.3369 48.8925C26.2572 49.3248 26.1326 49.5424 25.943 49.753L26.2403 50.0206ZM39.1405 48.8788L39.3377 48.9119L39.3769 48.6788H39.1405V48.8788ZM31.8765 51.2308L32.0179 51.0894L31.8765 51.2308ZM31.8765 42.1428L31.7351 42.0014L31.8765 42.1428ZM39.1405 44.4948V44.6948H39.3769L39.3377 44.4617L39.1405 44.4948ZM36.8845 44.4948L36.6903 44.5425L36.7277 44.6948H36.8845V44.4948ZM33.5405 43.4708L33.6892 43.6046L33.6914 43.602L33.5405 43.4708ZM33.5405 49.9028L33.6914 49.7716L33.6892 49.769L33.5405 49.9028ZM36.8845 48.8788V48.6788H36.7277L36.6903 48.8311L36.8845 48.8788ZM38.9433 48.8457C38.7502 49.9966 38.2514 50.8508 37.5597 51.4182C36.867 51.9863 35.966 52.2788 34.9485 52.2788V52.6788C36.043 52.6788 37.038 52.3633 37.8133 51.7275C38.5896 51.0908 39.1308 50.145 39.3377 48.9119L38.9433 48.8457ZM34.9485 52.2788C33.7535 52.2788 32.7804 51.8519 32.0179 51.0894L31.7351 51.3722C32.5726 52.2098 33.6475 52.6788 34.9485 52.6788V52.2788ZM32.0179 51.0894C30.9354 50.0068 30.9565 48.6783 30.9565 46.6868H30.5565C30.5565 48.6314 30.5136 50.1508 31.7351 51.3722L32.0179 51.0894ZM30.9565 46.6868C30.9565 44.6954 30.9354 43.3668 32.0179 42.2842L31.7351 42.0014C30.5136 43.2228 30.5565 44.7423 30.5565 46.6868H30.9565ZM32.0179 42.2842C32.7804 41.5218 33.7535 41.0948 34.9485 41.0948V40.6948C33.6475 40.6948 32.5726 41.1639 31.7351 42.0014L32.0179 42.2842ZM34.9485 41.0948C35.9742 41.0948 36.875 41.3875 37.5655 41.9553C38.255 42.5224 38.7501 43.3765 38.9433 44.5279L39.3377 44.4617C39.1309 43.2291 38.594 42.2832 37.8195 41.6463C37.046 41.0102 36.0508 40.6948 34.9485 40.6948V41.0948ZM39.1405 44.2948H36.8845V44.6948H39.1405V44.2948ZM37.0787 44.4471C36.9605 43.9659 36.7455 43.5226 36.3967 43.1983C36.0441 42.8706 35.57 42.6788 34.9645 42.6788V43.0788C35.479 43.0788 35.8529 43.239 36.1243 43.4913C36.3995 43.747 36.5845 44.1117 36.6903 44.5425L37.0787 44.4471ZM34.9645 42.6788C34.3063 42.6788 33.7524 42.9224 33.3896 43.3396L33.6914 43.602C33.9686 43.2832 34.4067 43.0788 34.9645 43.0788V42.6788ZM33.3918 43.337C33.1488 43.607 32.9938 43.8979 32.9018 44.4008C32.8121 44.8908 32.7805 45.5916 32.7805 46.6868H33.1805C33.1805 45.59 33.2129 44.9228 33.2952 44.4728C33.3752 44.0358 33.5002 43.8146 33.6892 43.6046L33.3918 43.337ZM32.7805 46.6868C32.7805 47.782 32.8121 48.4828 32.9018 48.9728C32.9938 49.4758 33.1488 49.7666 33.3918 50.0366L33.6892 49.769C33.5002 49.559 33.3752 49.3379 33.2952 48.9008C33.2129 48.4508 33.1805 47.7836 33.1805 46.6868H32.7805ZM33.3896 50.034C33.7524 50.4512 34.3063 50.6948 34.9645 50.6948V50.2948C34.4067 50.2948 33.9686 50.0904 33.6914 49.7716L33.3896 50.034ZM34.9645 50.6948C35.57 50.6948 36.0441 50.503 36.3967 50.1753C36.7455 49.851 36.9605 49.4077 37.0787 48.9265L36.6903 48.8311C36.5845 49.2619 36.3995 49.6266 36.1243 49.8823C35.8529 50.1346 35.479 50.2948 34.9645 50.2948V50.6948ZM36.8845 49.0788H39.1405V48.6788H36.8845V49.0788Z" fill="#3F7B94" mask="url(#path-3-outside-1_294_24072)"/>
</svg>
