<svg width="39" height="40" viewBox="0 0 39 40" fill="none" xmlns="http://www.w3.org/2000/svg">
<path d="M39 20C39 30.7696 30.2696 39.5 19.5 39.5C8.73045 39.5 0 30.7696 0 20C0 9.23045 8.73045 0.5 19.5 0.5C30.2696 0.5 39 9.23045 39 20Z" fill="#3F7B94" fill-opacity="0.1"/>
<path d="M24.2793 21.7508L24.8496 18.1292H21.2835V15.7817C21.2586 15.5114 21.2965 15.2392 21.3943 14.9851C21.4921 14.731 21.6473 14.5016 21.8485 14.3139C22.0496 14.1261 22.2916 13.9848 22.5564 13.9004C22.8212 13.816 23.1021 13.7907 23.3783 13.8263H25V10.7449C24.048 10.595 23.086 10.5132 22.1217 10.5C19.1847 10.5 17.2645 12.2334 17.2645 15.372V18.1292H14V21.7493H17.2645V30.5H21.2827V21.7508H24.2793Z" fill="#3F7B94"/>
</svg>
