<svg width="74" height="71" viewBox="0 0 74 71" fill="none" xmlns="http://www.w3.org/2000/svg">
<path d="M52.5437 67.3098H21.8959C8.38024 67.3098 4.27344 63.3533 4.27344 50.3322V20.8058C4.27344 7.78466 8.38024 3.82812 21.8959 3.82812H26.4931C31.8564 3.82812 33.5421 5.51113 35.6874 8.25708L40.2846 14.1624C41.296 15.4615 41.4492 15.6387 43.3494 15.6387H52.5437C66.0594 15.6387 70.1662 19.5952 70.1662 32.6163V50.3322C70.1662 63.3533 66.0594 67.3098 52.5437 67.3098ZM21.8959 8.25708C10.924 8.25708 8.87061 10.2649 8.87061 20.8058V50.3322C8.87061 60.8731 10.924 62.8809 21.8959 62.8809H52.5437C63.5156 62.8809 65.569 60.8731 65.569 50.3322V32.6163C65.569 22.0754 63.5156 20.0676 52.5437 20.0676H43.3494C39.4264 20.0676 38.1392 18.7685 36.6069 16.8197L32.0097 10.9145C30.416 8.87713 29.9256 8.25708 26.4931 8.25708H21.8959Z" fill="#3F7B94" stroke="#3F7B94" stroke-width="1.5"/>
<path d="M61.74 21.1896C60.4834 21.1896 59.4414 20.1857 59.4414 18.9752V14.9005C59.4414 10.2353 57.388 8.25708 52.5457 8.25708H24.9626C23.7061 8.25708 22.6641 7.25318 22.6641 6.0426C22.6641 4.83202 23.7061 3.82812 24.9626 3.82812H52.5457C59.9624 3.82812 64.0386 7.75513 64.0386 14.9005V18.9752C64.0386 20.1857 62.9965 21.1896 61.74 21.1896Z" fill="#3F7B94" stroke="#3F7B94" stroke-width="1.5"/>
</svg>
