<svg width="37" height="37" viewBox="0 0 37 37" fill="none" xmlns="http://www.w3.org/2000/svg">
<g opacity="0.9">
<path d="M15.5833 19.9557C16.3888 19.9557 17.0417 19.3028 17.0417 18.4974C17.0417 17.6921 16.3888 17.0391 15.5833 17.0391C14.7779 17.0391 14.125 17.6921 14.125 18.4974C14.125 19.3028 14.7779 19.9557 15.5833 19.9557Z" fill="white" stroke="white" stroke-width="33.3333"/>
<path d="M22.8776 18.4974C22.8776 19.3028 22.2247 19.9557 21.4193 19.9557C20.6138 19.9557 19.9609 19.3028 19.9609 18.4974C19.9609 17.6921 20.6138 17.0391 21.4193 17.0391C22.2247 17.0391 22.8776 17.6921 22.8776 18.4974Z" fill="red" stroke="red" stroke-width="33.3333"/>
<path d="M13.0907 23.3021C13.6553 22.7376 14.5677 22.7326 15.1383 23.2876C15.1416 23.2906 15.1449 23.2935 15.1482 23.2964L14.977 23.4687L14.2808 24.1692L14.2808 24.1692L14.1199 24.3311L13.0907 23.3021ZM13.0907 23.3021C12.5212 23.8717 12.5222 24.796 13.0917 25.3656M13.0907 23.3021L14.1197 24.3313L13.0917 25.3656M13.0917 25.3656C13.096 25.3699 13.1003 25.3741 13.1046 25.3784C13.1345 25.4078 13.1649 25.4366 13.1973 25.466C13.2814 25.5422 13.3793 25.6222 13.5203 25.7279C13.7645 25.911 14.1119 26.1411 14.5631 26.3668L15.0939 25.3056L14.3757 24.5873L14.3756 24.5872L14.1666 24.3782L14.123 24.3346L14.0122 24.4453L14.0122 24.4453L13.0917 25.3656ZM23.9031 25.3646C23.8984 25.3693 23.8938 25.3739 23.8891 25.3785C23.8592 25.4079 23.8289 25.4367 23.7966 25.466C23.7125 25.5422 23.6145 25.6221 23.4735 25.7279C23.2292 25.911 22.8818 26.1411 22.4306 26.3667L21.9 25.3057L22.618 24.5875L23.4729 25.7272L22.6182 24.5873L22.8273 24.3782L22.8718 24.3336L22.9071 24.3689L22.9071 24.3689L23.9031 25.3646ZM23.9031 25.3646C24.4726 24.795 24.4726 23.8717 23.9031 23.3021M23.9031 25.3646L22.8733 24.3321L23.9031 23.3021M23.9031 23.3021C23.3384 22.7376 22.4261 22.7326 21.8554 23.2876C21.8512 23.2914 21.847 23.2952 21.8427 23.2989L22.056 23.5127L22.7953 24.2539L22.7953 24.2539L22.873 24.3319L23.9031 23.3021ZM14.8788 23.5789L15.1552 23.3025C15.1921 23.3347 15.2302 23.3657 15.2692 23.3956C15.2692 23.3956 15.2693 23.3957 15.2694 23.3958C15.4545 23.5376 15.6611 23.6547 15.8677 23.758L15.5154 24.4628L15.0941 25.3051L14.3759 24.5871L14.3758 24.587L14.1668 24.378L14.1232 24.3344L14.8788 23.5789ZM14.8713 25.7511L14.564 26.3658L15.0941 25.3059L16.908 27.12C15.949 26.9589 15.1662 26.6683 14.5634 26.3669C14.5634 26.3669 14.5634 26.3669 14.5634 26.3669L14.8713 25.7511ZM15.0944 25.3054L15.8681 23.7583C16.419 24.0337 17.2908 24.3333 18.4969 24.3333C19.7029 24.3333 20.5747 24.0337 21.1256 23.7583L21.8993 25.3053L20.0838 27.1204C19.5996 27.2017 19.0704 27.2499 18.4969 27.2499C17.9232 27.2499 17.394 27.2016 16.9096 27.1203L15.0944 25.3054ZM21.1261 23.7581C21.3326 23.6548 21.5391 23.5378 21.7241 23.396L22.6177 24.5871L21.8996 25.305L21.4445 24.395L21.1261 23.7581ZM21.9871 25.4803L22.4304 26.3669C22.4303 26.3669 22.4303 26.3669 22.4303 26.3669C21.8276 26.6682 21.0449 26.9588 20.0862 27.12L21.8997 25.306L22.4301 26.3664L21.9871 25.4803ZM22.827 24.3779L22.6179 24.5869L21.7246 23.3956C21.764 23.3654 21.8024 23.3342 21.8396 23.3016L22.0992 23.5612L22.8716 24.3333L22.827 24.3779Z" fill="white" stroke="white" stroke-width="33.3333"/>
<path fill-rule="evenodd" clip-rule="evenodd" d="M20.1473 5.08853C20.3885 5.51628 20.5485 6.13002 20.2459 6.93677C19.6735 6.86847 19.0908 6.83333 18.5 6.83333C12.0802 6.83333 6.62924 10.9816 4.68139 16.7438C2.56905 17.2544 1 19.1571 1 21.4262C1 23.6979 2.57252 25.6022 4.68839 26.1101C6.64228 31.8616 12.0879 35.9999 18.5 35.9999C24.9121 35.9999 30.3577 31.8616 32.3116 26.1101C34.4275 25.6022 36 23.6979 36 21.4262C36 19.1571 34.431 17.2544 32.3186 16.7438C30.8589 12.4258 27.4321 9.01406 23.1045 7.57515C23.5299 6.15059 23.329 4.79275 22.688 3.65604C21.7998 2.08061 20.0735 1 18.5 1C17.1395 1 16.1108 1.51471 15.4361 2.02113C15.101 2.27262 14.848 2.52524 14.6744 2.7209C14.5871 2.81929 14.5183 2.90503 14.4678 2.97147C13.9556 3.64537 14.0404 4.64211 14.776 5.13113C15.5568 5.6502 16.3102 5.27193 16.856 4.65671C16.925 4.57893 17.0361 4.46696 17.1869 4.35387C17.4837 4.13112 17.9132 3.91666 18.5 3.91666C18.8736 3.91666 19.6995 4.29424 20.1473 5.08853ZM30.0672 23.6495L31.6308 23.2741C32.4654 23.0737 33.0833 22.3184 33.0833 21.4262C33.0833 20.5349 32.4669 19.7804 31.6335 19.579L30.0704 19.2013L29.5555 17.6779C27.9961 13.0646 23.6313 9.74999 18.5 9.74999C13.3686 9.74999 9.0039 13.0646 7.44446 17.6779L6.92951 19.2013L5.3665 19.579C4.53312 19.7804 3.91667 20.5349 3.91667 21.4262C3.91667 22.3184 4.5345 23.0737 5.36923 23.2741L6.93281 23.6495L7.45005 25.172C9.01434 29.7766 13.3748 33.0833 18.5 33.0833C23.6252 33.0833 27.9856 29.7766 29.5499 25.172L30.0672 23.6495Z" fill="white" stroke="white" stroke-width="0.3"/>
</g>
</svg>
