<svg width="30" height="30" viewBox="0 0 30 30" fill="none" xmlns="http://www.w3.org/2000/svg">
<path d="M21.25 2.5H8.75C5.29822 2.5 2.5 5.29822 2.5 8.75V21.25C2.5 24.7018 5.29822 27.5 8.75 27.5H21.25C24.7018 27.5 27.5 24.7018 27.5 21.25V8.75C27.5 5.29822 24.7018 2.5 21.25 2.5Z" stroke="white" stroke-width="2.5" stroke-linecap="round" stroke-linejoin="round"/>
<path d="M20.0006 14.2119C20.1549 15.2522 19.9772 16.3147 19.4928 17.2482C19.0084 18.1817 18.242 18.9387 17.3026 19.4115C16.3632 19.8843 15.2987 20.0489 14.2603 19.8818C13.222 19.7147 12.2628 19.2245 11.5192 18.4809C10.7755 17.7372 10.2853 16.778 10.1182 15.7397C9.95111 14.7013 10.1157 13.6368 10.5885 12.6974C11.0613 11.758 11.8183 10.9916 12.7518 10.5072C13.6853 10.0228 14.7478 9.84514 15.7881 9.9994C16.8493 10.1568 17.8317 10.6512 18.5902 11.4098C19.3488 12.1683 19.8433 13.1507 20.0006 14.2119Z" stroke="white" stroke-width="2.5" stroke-linecap="round" stroke-linejoin="round"/>
<path d="M21.875 8.125H21.8875" stroke="white" stroke-width="2.5" stroke-linecap="round" stroke-linejoin="round"/>
</svg>
