<svg width="27" height="27" viewBox="0 0 27 27" fill="none" xmlns="http://www.w3.org/2000/svg">
<path d="M6.47391 26.5559H1.13354V9.36314H6.47391V26.5559ZM3.80049 7.01742C3.18604 7.02015 2.58457 6.84066 2.07214 6.50165C1.55971 6.16264 1.15932 5.67933 0.92161 5.11282C0.683897 4.54631 0.619531 3.92206 0.73665 3.31898C0.853769 2.7159 1.14711 2.16108 1.57959 1.72468C2.01207 1.28827 2.56427 0.989882 3.16635 0.867228C3.76844 0.744575 4.39339 0.80317 4.96217 1.0356C5.53095 1.26804 6.01803 1.66387 6.36182 2.17306C6.70561 2.68224 6.89066 3.28191 6.8936 3.89625C6.89436 4.71931 6.56963 5.5093 5.99021 6.09398C5.4108 6.67865 4.62369 7.01059 3.80049 7.01742ZM26.4589 26.5559H21.1315V18.1869C21.1315 16.1924 21.0908 13.6341 18.3582 13.6341C15.585 13.6341 15.156 15.8014 15.156 18.0427V26.5559H9.81846V9.36314H14.9444V11.7098H15.0192C15.5319 10.8339 16.2726 10.1135 17.1624 9.62519C18.0522 9.13692 19.0578 8.8991 20.0721 8.93707C25.4763 8.93707 26.47 12.4954 26.47 17.1166V26.5559H26.4589Z" fill="white"/>
</svg>
