<svg id="noun-sidebar-385157" xmlns="http://www.w3.org/2000/svg" width="22.93" height="18.644" viewBox="0 0 22.93 18.644">
  <path id="Path_8099" data-name="Path 8099" d="M694.763,100c.9,0,1.64.512,1.64,1.14s-.737,1.14-1.64,1.14H684.94c-.9,0-1.64-.512-1.64-1.14s.737-1.14,1.64-1.14Z" transform="translate(-683.3 -100)" fill="#fff"/>
  <path id="Path_8100" data-name="Path 8100" d="M605.955,138.616a.586.586,0,0,1,.059.136,1.287,1.287,0,0,1,.118.263c.02.054.049.1.069.154a.808.808,0,0,1,0,.154c0,.045.029.091.029.136s-.029.091-.029.136.01.1,0,.154a1.067,1.067,0,0,1-.069.154,1.287,1.287,0,0,1-.118.263c-.029.045-.029.091-.059.136h0l-3.271,4.536a1.679,1.679,0,0,1-1.366.671,1.7,1.7,0,0,1-.9-.254,1.439,1.439,0,0,1-.452-2.1l1.582-2.186h-16.6a1.52,1.52,0,1,1,0-3.03h16.594l-1.582-2.186a1.445,1.445,0,0,1,.452-2.1,1.726,1.726,0,0,1,2.269.417l3.281,4.536Z" transform="translate(-583.3 -130.128)" fill="#fff"/>
  <path id="Path_8101" data-name="Path 8101" d="M684.94,266.7h9.823c.9,0,1.64.511,1.64,1.138s-.737,1.132-1.64,1.132H684.94c-.9,0-1.64-.511-1.64-1.138S684.037,266.7,684.94,266.7Z" transform="translate(-683.3 -250.326)" fill="#fff"/>
</svg>
