<svg width="51" height="62" viewBox="0 0 51 62" fill="none" xmlns="http://www.w3.org/2000/svg">
<path d="M28.4283 2.5H8.65074C7.15207 2.5 5.71478 3.09534 4.65506 4.15506C3.59534 5.21478 3 6.65207 3 8.15074V53.3566C3 54.8553 3.59534 56.2926 4.65506 57.3523C5.71478 58.412 7.15207 59.0074 8.65074 59.0074H42.5551C44.0538 59.0074 45.4911 58.412 46.5508 57.3523C47.6105 56.2926 48.2059 54.8553 48.2059 53.3566V22.2776L28.4283 2.5Z" stroke="#3F7B94" stroke-width="5" stroke-linecap="round" stroke-linejoin="round"/>
<path d="M28.4297 2.5V22.2776H48.2073" stroke="#3F7B94" stroke-width="5" stroke-linecap="round" stroke-linejoin="round"/>
<mask id="path-3-outside-1_294_24084" maskUnits="userSpaceOnUse" x="9.96875" y="40.3828" width="29" height="13" fill="black">
<rect fill="white" x="9.96875" y="40.3828" width="29" height="13"/>
<path d="M18.4728 44.5428C18.4728 46.4788 17.0648 48.0948 14.7128 48.0948H12.5208V52.3828H10.2968V40.9908H14.7128C17.0648 40.9908 18.4728 42.6068 18.4728 44.5428ZM16.2488 44.5428C16.2488 43.6148 15.6088 42.9748 14.6008 42.9748H12.5208V46.0948H14.6008C15.6088 46.0948 16.2488 45.4708 16.2488 44.5428ZM28.6156 46.6388C28.6156 48.3508 28.7436 50.0148 27.4636 51.2948C26.7116 52.0468 25.6396 52.3828 24.4556 52.3828H20.3436V40.9908H24.4556C25.6396 40.9908 26.7116 41.3268 27.4636 42.0788C28.7436 43.3588 28.6156 44.9268 28.6156 46.6388ZM26.3916 46.6388C26.3916 44.9108 26.3276 44.1908 25.9116 43.6788C25.5276 43.2148 25.0156 42.9748 24.2476 42.9748H22.5676V50.3988H24.2476C25.0156 50.3988 25.5276 50.1588 25.9116 49.6948C26.3276 49.1828 26.3916 48.3668 26.3916 46.6388ZM38.3945 42.9748H33.1145V45.7748H37.6105V47.7588H33.1145V52.3828H30.8905V40.9908H38.3945V42.9748Z"/>
</mask>
<path d="M18.4728 44.5428C18.4728 46.4788 17.0648 48.0948 14.7128 48.0948H12.5208V52.3828H10.2968V40.9908H14.7128C17.0648 40.9908 18.4728 42.6068 18.4728 44.5428ZM16.2488 44.5428C16.2488 43.6148 15.6088 42.9748 14.6008 42.9748H12.5208V46.0948H14.6008C15.6088 46.0948 16.2488 45.4708 16.2488 44.5428ZM28.6156 46.6388C28.6156 48.3508 28.7436 50.0148 27.4636 51.2948C26.7116 52.0468 25.6396 52.3828 24.4556 52.3828H20.3436V40.9908H24.4556C25.6396 40.9908 26.7116 41.3268 27.4636 42.0788C28.7436 43.3588 28.6156 44.9268 28.6156 46.6388ZM26.3916 46.6388C26.3916 44.9108 26.3276 44.1908 25.9116 43.6788C25.5276 43.2148 25.0156 42.9748 24.2476 42.9748H22.5676V50.3988H24.2476C25.0156 50.3988 25.5276 50.1588 25.9116 49.6948C26.3276 49.1828 26.3916 48.3668 26.3916 46.6388ZM38.3945 42.9748H33.1145V45.7748H37.6105V47.7588H33.1145V52.3828H30.8905V40.9908H38.3945V42.9748Z" fill="#3F7B94"/>
<path d="M12.5208 48.0948V47.8948H12.3208V48.0948H12.5208ZM12.5208 52.3828V52.5828H12.7208V52.3828H12.5208ZM10.2968 52.3828H10.0968V52.5828H10.2968V52.3828ZM10.2968 40.9908V40.7908H10.0968V40.9908H10.2968ZM12.5208 42.9748V42.7748H12.3208V42.9748H12.5208ZM12.5208 46.0948H12.3208V46.2948H12.5208V46.0948ZM18.2728 44.5428C18.2728 45.4618 17.9391 46.2977 17.3333 46.9034C16.7285 47.5082 15.8412 47.8948 14.7128 47.8948V48.2948C15.9364 48.2948 16.929 47.8734 17.6162 47.1862C18.3024 46.5 18.6728 45.5598 18.6728 44.5428H18.2728ZM14.7128 47.8948H12.5208V48.2948H14.7128V47.8948ZM12.3208 48.0948V52.3828H12.7208V48.0948H12.3208ZM12.5208 52.1828H10.2968V52.5828H12.5208V52.1828ZM10.4968 52.3828V40.9908H10.0968V52.3828H10.4968ZM10.2968 41.1908H14.7128V40.7908H10.2968V41.1908ZM14.7128 41.1908C15.8412 41.1908 16.7285 41.5774 17.3333 42.1822C17.9391 42.788 18.2728 43.6238 18.2728 44.5428H18.6728C18.6728 43.5258 18.3024 42.5857 17.6162 41.8994C16.929 41.2122 15.9364 40.7908 14.7128 40.7908V41.1908ZM16.4488 44.5428C16.4488 44.0314 16.2714 43.5851 15.9416 43.2669C15.6124 42.9491 15.1476 42.7748 14.6008 42.7748V43.1748C15.0619 43.1748 15.4211 43.3205 15.6639 43.5547C15.9061 43.7885 16.0488 44.1262 16.0488 44.5428H16.4488ZM14.6008 42.7748H12.5208V43.1748H14.6008V42.7748ZM12.3208 42.9748V46.0948H12.7208V42.9748H12.3208ZM12.5208 46.2948H14.6008V45.8948H12.5208V46.2948ZM14.6008 46.2948C15.1462 46.2948 15.6108 46.1254 15.9406 45.8117C16.2712 45.4973 16.4488 45.0544 16.4488 44.5428H16.0488C16.0488 44.9592 15.9063 45.2923 15.6649 45.5219C15.4227 45.7523 15.0633 45.8948 14.6008 45.8948V46.2948ZM27.4636 51.2948L27.3222 51.1534L27.4636 51.2948ZM20.3436 52.3828H20.1436V52.5828H20.3436V52.3828ZM20.3436 40.9908V40.7908H20.1436V40.9908H20.3436ZM27.4636 42.0788L27.3222 42.2202L27.4636 42.0788ZM25.9116 43.6788L26.0669 43.5527L26.0657 43.5513L25.9116 43.6788ZM22.5676 42.9748V42.7748H22.3676V42.9748H22.5676ZM22.5676 50.3988H22.3676V50.5988H22.5676V50.3988ZM25.9116 49.6948L26.0657 49.8223L26.0668 49.8209L25.9116 49.6948ZM28.4156 46.6388C28.4156 48.3828 28.531 49.9446 27.3222 51.1534L27.605 51.4362C28.9563 50.085 28.8156 48.3188 28.8156 46.6388H28.4156ZM27.3222 51.1534C26.6185 51.8571 25.6041 52.1828 24.4556 52.1828V52.5828C25.6751 52.5828 26.8047 52.2365 27.605 51.4362L27.3222 51.1534ZM24.4556 52.1828H20.3436V52.5828H24.4556V52.1828ZM20.5436 52.3828V40.9908H20.1436V52.3828H20.5436ZM20.3436 41.1908H24.4556V40.7908H20.3436V41.1908ZM24.4556 41.1908C25.6041 41.1908 26.6185 41.5166 27.3222 42.2202L27.605 41.9374C26.8047 41.1371 25.6751 40.7908 24.4556 40.7908V41.1908ZM27.3222 42.2202C28.5314 43.4294 28.4156 44.897 28.4156 46.6388H28.8156C28.8156 44.9567 28.9559 43.2882 27.605 41.9374L27.3222 42.2202ZM26.5916 46.6388C26.5916 45.7763 26.5759 45.1502 26.5055 44.6736C26.4342 44.1913 26.3047 43.8454 26.0668 43.5527L25.7564 43.8049C25.9346 44.0242 26.0451 44.2943 26.1098 44.7321C26.1753 45.1754 26.1916 45.7733 26.1916 46.6388H26.5916ZM26.0657 43.5513C25.6382 43.0347 25.066 42.7748 24.2476 42.7748V43.1748C24.9653 43.1748 25.4171 43.3949 25.7575 43.8063L26.0657 43.5513ZM24.2476 42.7748H22.5676V43.1748H24.2476V42.7748ZM22.3676 42.9748V50.3988H22.7676V42.9748H22.3676ZM22.5676 50.5988H24.2476V50.1988H22.5676V50.5988ZM24.2476 50.5988C25.066 50.5988 25.6382 50.3389 26.0657 49.8223L25.7575 49.5673C25.4171 49.9787 24.9653 50.1988 24.2476 50.1988V50.5988ZM26.0668 49.8209C26.307 49.5254 26.4351 49.1529 26.5057 48.6506C26.5759 48.1509 26.5916 47.5018 26.5916 46.6388H26.1916C26.1916 47.5039 26.1754 48.1267 26.1096 48.595C26.0441 49.0607 25.9323 49.3522 25.7564 49.5687L26.0668 49.8209ZM38.3945 42.9748V43.1748H38.5945V42.9748H38.3945ZM33.1145 42.9748V42.7748H32.9145V42.9748H33.1145ZM33.1145 45.7748H32.9145V45.9748H33.1145V45.7748ZM37.6105 45.7748H37.8105V45.5748H37.6105V45.7748ZM37.6105 47.7588V47.9588H37.8105V47.7588H37.6105ZM33.1145 47.7588V47.5588H32.9145V47.7588H33.1145ZM33.1145 52.3828V52.5828H33.3145V52.3828H33.1145ZM30.8905 52.3828H30.6905V52.5828H30.8905V52.3828ZM30.8905 40.9908V40.7908H30.6905V40.9908H30.8905ZM38.3945 40.9908H38.5945V40.7908H38.3945V40.9908ZM38.3945 42.7748H33.1145V43.1748H38.3945V42.7748ZM32.9145 42.9748V45.7748H33.3145V42.9748H32.9145ZM33.1145 45.9748H37.6105V45.5748H33.1145V45.9748ZM37.4105 45.7748V47.7588H37.8105V45.7748H37.4105ZM37.6105 47.5588H33.1145V47.9588H37.6105V47.5588ZM32.9145 47.7588V52.3828H33.3145V47.7588H32.9145ZM33.1145 52.1828H30.8905V52.5828H33.1145V52.1828ZM31.0905 52.3828V40.9908H30.6905V52.3828H31.0905ZM30.8905 41.1908H38.3945V40.7908H30.8905V41.1908ZM38.1945 40.9908V42.9748H38.5945V40.9908H38.1945Z" fill="#3F7B94" mask="url(#path-3-outside-1_294_24084)"/>
</svg>
