<svg width="37" height="37" viewBox="0 0 37 37" fill="none" xmlns="http://www.w3.org/2000/svg">
<path d="M26.1484 9.51172C29.2318 11.6546 31.3593 15.0617 31.7909 18.993" stroke="#3F7B94" stroke-width="2.8" stroke-linecap="round" stroke-linejoin="round"/>
<path d="M5.38281 19.0711C5.78365 15.1553 7.88031 11.7482 10.9328 9.58984" stroke="#3F7B94" stroke-width="2.8" stroke-linecap="round" stroke-linejoin="round"/>
<path d="M12.625 32.2832C14.4133 33.1928 16.4483 33.7015 18.5913 33.7015C20.6571 33.7015 22.5996 33.239 24.3417 32.3911" stroke="#3F7B94" stroke-width="2.8" stroke-linecap="round" stroke-linejoin="round"/>
<path d="M18.5905 11.8705C20.9575 11.8705 22.8764 9.95166 22.8764 7.58466C22.8764 5.21766 20.9575 3.29883 18.5905 3.29883C16.2235 3.29883 14.3047 5.21766 14.3047 7.58466C14.3047 9.95166 16.2235 11.8705 18.5905 11.8705Z" stroke="#3F7B94" stroke-width="2.8" stroke-linecap="round" stroke-linejoin="round"/>
<path d="M7.4499 30.7103C9.8169 30.7103 11.7357 28.7915 11.7357 26.4245C11.7357 24.0575 9.8169 22.1387 7.4499 22.1387C5.0829 22.1387 3.16406 24.0575 3.16406 26.4245C3.16406 28.7915 5.0829 30.7103 7.4499 30.7103Z" stroke="#3F7B94" stroke-width="2.8" stroke-linecap="round" stroke-linejoin="round"/>
<path d="M29.5515 30.7103C31.9185 30.7103 33.8373 28.7915 33.8373 26.4245C33.8373 24.0575 31.9185 22.1387 29.5515 22.1387C27.1845 22.1387 25.2656 24.0575 25.2656 26.4245C25.2656 28.7915 27.1845 30.7103 29.5515 30.7103Z" stroke="#3F7B94" stroke-width="2.8" stroke-linecap="round" stroke-linejoin="round"/>
</svg>
