<svg width="45" height="36" viewBox="0 0 45 36" fill="none" xmlns="http://www.w3.org/2000/svg">
<path d="M22.5435 26.3015C17.664 26.3015 13.7031 22.5831 13.7031 18.0023C13.7031 13.4215 17.664 9.70312 22.5435 9.70312C27.4231 9.70312 31.384 13.4215 31.384 18.0023C31.384 22.5831 27.4231 26.3015 22.5435 26.3015ZM22.5435 12.5781C19.3585 12.5781 16.7656 15.0123 16.7656 18.0023C16.7656 20.9923 19.3585 23.4265 22.5435 23.4265C25.7285 23.4265 28.3215 20.9923 28.3215 18.0023C28.3215 15.0123 25.7285 12.5781 22.5435 12.5781Z" fill="#DC012C" stroke="#DC012C"/>
<path d="M22.5294 35.2876C14.8527 35.2876 7.60479 31.0709 2.62312 23.7493C0.458958 20.5868 0.458958 15.4309 2.62312 12.2493C7.62521 4.9276 14.8731 0.710938 22.5294 0.710938C30.1856 0.710938 37.4335 4.9276 42.4152 12.2493C44.5794 15.4118 44.5794 20.5676 42.4152 23.7493C37.4335 31.0709 30.1856 35.2876 22.5294 35.2876ZM22.5294 3.58594C15.9348 3.58594 9.62604 7.30427 5.21604 13.8018C3.68479 16.0443 3.68479 19.9543 5.21604 22.1968C9.62604 28.6943 15.9348 32.4126 22.5294 32.4126C29.124 32.4126 35.4327 28.6943 39.8427 22.1968C41.374 19.9543 41.374 16.0443 39.8427 13.8018C35.4327 7.30427 29.124 3.58594 22.5294 3.58594Z" fill="#DC012C" stroke="#DC012C"/>
</svg>
