<svg width="32" height="22" viewBox="0 0 32 22" fill="none" xmlns="http://www.w3.org/2000/svg">
<path fill-rule="evenodd" clip-rule="evenodd" d="M12.5533 15.0639V6.24532C15.6839 7.71843 18.1085 9.14148 20.9761 10.6757C18.611 11.9874 15.6839 13.4591 12.5533 15.0639ZM30.0001 1.85945C29.4601 1.14797 28.5397 0.594139 27.5598 0.410785C24.6797 -0.13615 6.71155 -0.137706 3.83295 0.410785C3.04717 0.558091 2.34746 0.91415 1.74638 1.46736C-0.786284 3.81805 0.00733256 16.4241 0.617802 18.4661C0.874511 19.35 1.20637 19.9874 1.62431 20.4058C2.16277 20.959 2.90002 21.3399 3.74685 21.5107C6.11828 22.0013 18.3355 22.2755 27.5097 21.5844C28.355 21.4371 29.1032 21.0439 29.6933 20.4672C32.035 18.1259 31.8754 4.81192 30.0001 1.85945Z" fill="white"/>
</svg>
